<?xml version="1.0" standalone="no"?>
<!DOCTYPE svg PUBLIC "-//W3C//DTD SVG 20010904//EN"
 "http://www.w3.org/TR/2001/REC-SVG-20010904/DTD/svg10.dtd">
<svg version="1.0" xmlns="http://www.w3.org/2000/svg"
 width="930.000000pt" height="1280.000000pt" viewBox="0 0 930.000000 1280.000000"
 preserveAspectRatio="xMidYMid meet">
<g transform="translate(0.000000,1280.000000) scale(0.100000,-0.100000)"
fill="#e92020" stroke="none">
<path d="M4380 12784 c-643 -52 -1112 -169 -1660 -414 -283 -126 -635 -339
-897 -542 -912 -706 -1524 -1704 -1734 -2828 -31 -165 -56 -375 -75 -625 -19
-244 -15 -347 22 -715 94 -926 480 -1822 1093 -2540 45 -52 769 -992 1609
-2090 839 -1097 1554 -2023 1588 -2056 189 -189 459 -189 648 0 34 33 749 959
1588 2056 840 1098 1564 2038 1609 2090 452 529 788 1168 963 1832 87 328 125
575 157 1023 11 148 10 201 -5 400 -56 738 -196 1269 -488 1850 -610 1213
-1712 2099 -3016 2425 -283 70 -520 107 -881 135 -225 17 -297 17 -521 -1z
m507 -2239 c571 -71 1081 -389 1397 -871 283 -433 382 -961 276 -1473 -46
-222 -157 -485 -284 -675 -310 -462 -778 -761 -1332 -852 -150 -25 -438 -25
-588 0 -642 105 -1176 498 -1457 1071 -193 395 -247 827 -158 1268 58 287 212
607 404 837 76 90 228 238 310 301 412 315 926 457 1432 394z"/>
</g>
</svg>
